<svg width="477" height="291" viewBox="0 0 477 291" fill="none" xmlns="http://www.w3.org/2000/svg">
<path d="M356.668 127.483L347.545 132.761V141.884L356.668 136.602V127.483Z" fill="#2F4B0C"/>
<path d="M338.422 127.483L347.545 132.761V141.884L338.422 136.602V127.483Z" fill="#5F971C"/>
<path d="M356.662 127.479L347.545 122.21L338.422 127.491L347.545 132.757V132.755V132.757L356.662 127.479Z" fill="#6CAD21"/>
<path d="M353.301 122.163L347.831 125.332V130.806L353.301 127.639V122.163Z" fill="#2F4B0C"/>
<path d="M342.355 122.163L347.831 125.332V130.806L342.355 127.639V122.163Z" fill="#5F971C"/>
<path d="M353.297 122.163L347.831 119.002L342.355 122.167L347.831 125.328L353.297 122.163Z" fill="#80CC28"/>
<path d="M351.819 117.574L347.773 119.918V123.962L351.819 121.62V117.574Z" fill="#2F4B0C"/>
<path d="M343.723 117.574L347.773 119.918V123.962L343.723 121.62V117.574Z" fill="#5F971C"/>
<path d="M351.817 117.575L347.773 115.238L343.723 117.578L347.773 119.915L351.817 117.575Z" fill="#80CC28"/>
<path d="M297.578 108.518L306.705 113.793V122.918L297.578 117.637V108.518" fill="#5F971C"/>
<path d="M315.822 108.518L306.705 113.793V122.918L315.822 117.637V108.518" fill="#2F4B0C"/>
<path d="M315.818 108.516L306.705 103.245L297.578 108.526L306.705 113.793L315.818 108.516Z" fill="#6CAD21"/>
<path d="M312.459 103.198L306.985 106.367V111.84L312.459 108.674V103.198Z" fill="#2F4B0C"/>
<path d="M301.511 103.198L306.985 106.367V111.84L301.511 108.674V103.198Z" fill="#5F971C"/>
<path d="M312.453 103.198L306.985 100.035L301.511 103.204L306.985 106.365L312.453 103.198Z" fill="#80CC28"/>
<path d="M310.975 98.6093L306.929 100.953V104.999L310.975 102.657V98.6093Z" fill="#2F4B0C"/>
<path d="M302.881 98.6093L306.928 100.953V104.999L302.881 102.657V98.6093Z" fill="#5F971C"/>
<path d="M310.971 98.6092L306.928 96.2749L302.881 98.615L306.928 100.951L310.971 98.6092Z" fill="#80CC28"/>
<path d="M477 139.307L250.494 10.1373L0 154.726L225.959 284.376L477 139.307Z" fill="#BF935B"/>
<path d="M477 139.307L226.101 280.669V290.151L477 144.02V140.766V139.307Z" fill="#837430"/>
<path d="M0 153.032L226.101 280.669V290.151L0 160.026V153.032Z" fill="#B09C40"/>
<path d="M18.9633 164.105L0 153.165L61.8808 117.417V139.72L18.9633 164.105ZM69.284 135.462L61.8808 139.72V136.449V117.417L224.642 23.3987L223.672 46.6795L69.284 135.462ZM231.083 42.4195L223.672 46.6795L223.749 24.2786L250.17 8.75204L268.404 20.4218L259.652 14.8314L255.275 12.0362L268.404 20.4218L231.083 42.4195Z" fill="#9D794A"/>
<path d="M259.212 12.2449L250.089 17.5203V26.6471L259.212 21.3659V12.2449Z" fill="#2F4B0C"/>
<path d="M240.964 12.2449L250.089 17.5203V26.6471L240.964 21.3659V12.2449Z" fill="#5F971C"/>
<path d="M259.208 12.241L250.089 6.97341L240.964 12.2546L250.089 17.5203V17.5183V17.5203L259.208 12.241" fill="#6CAD21"/>
<path d="M255.848 6.92669L250.375 10.0954V15.5692L255.848 12.4024V6.92669" fill="#2F4B0C"/>
<path d="M244.901 6.92669L250.375 10.0954V15.5692L244.901 12.4024V6.92669" fill="#5F971C"/>
<path d="M255.845 6.92677L250.375 3.76388L244.901 6.93261L250.375 10.0897L255.845 6.92677" fill="#80CC28"/>
<path d="M254.368 2.33785L250.319 4.67987V8.72589L254.368 6.37997V2.33785Z" fill="#2F4B0C"/>
<path d="M246.272 2.33785L250.318 4.67987V8.72589L246.272 6.37997V2.33785Z" fill="#5F971C"/>
<path d="M254.363 2.33793L250.318 -0.000204887L246.272 2.34182L250.318 4.67606L254.363 2.33793Z" fill="#80CC28"/>
<path d="M232.263 27.9348L223.142 33.216V42.3389L232.263 37.0617V27.9348Z" fill="#2F4B0C"/>
<path d="M214.015 27.9348L223.142 33.216V42.3389L214.015 37.0617V27.9348Z" fill="#5F971C"/>
<path d="M232.257 27.9349L223.142 22.6673L214.015 27.9465L223.142 33.2122L232.257 27.9349Z" fill="#6CAD21"/>
<path d="M228.898 22.6205L223.422 25.7872V31.2591L228.898 28.0942V22.6205" fill="#2F4B0C"/>
<path d="M217.948 22.6205L223.422 25.7872V31.2591L217.948 28.0942V22.6205" fill="#5F971C"/>
<path d="M228.894 22.6206L223.422 19.4577L217.948 22.6265L223.422 25.7874V25.7835V25.7874L228.894 22.6206" fill="#80CC28"/>
<path d="M227.416 18.0299L223.364 20.3739V24.4199L227.416 22.0779V18.0299" fill="#2F4B0C"/>
<path d="M219.32 18.0299L223.364 20.3739V24.4199L219.32 22.0779V18.0299" fill="#5F971C"/>
<path d="M227.412 18.0298L223.364 15.6955L219.32 18.0356L223.364 20.3737V20.3718V20.3737L227.412 18.0298Z" fill="#80CC28"/>
<path d="M178.36 59.3243L169.237 64.5996V73.7226L178.36 68.4453V59.3243" fill="#2F4B0C"/>
<path d="M160.116 59.3243L169.237 64.5996V73.7226L160.116 68.4453V59.3243" fill="#5F971C"/>
<path d="M178.356 59.3204L169.237 54.0528L160.116 59.3321L169.237 64.5996V64.5977V64.5996L178.356 59.3204Z" fill="#6CAD21"/>
<path d="M174.995 54.0082L169.521 57.1711V62.6487L174.995 59.48V54.0082Z" fill="#2F4B0C"/>
<path d="M164.047 54.0082L169.521 57.1711V62.6487L164.047 59.48V54.0082Z" fill="#5F971C"/>
<path d="M174.99 54.0081L169.521 50.8452L164.047 54.012L169.521 57.171L174.99 54.0081Z" fill="#80CC28"/>
<path d="M173.516 49.4156L169.463 51.7576V55.8055L173.516 53.4596V49.4156Z" fill="#2F4B0C"/>
<path d="M165.417 49.4156L169.463 51.7576V55.8055L165.417 53.4596V49.4156Z" fill="#5F971C"/>
<path d="M173.509 49.4155L169.463 47.0793L165.417 49.4213L169.463 51.7556L173.509 49.4155Z" fill="#80CC28"/>
<path d="M151.409 75.0143L142.292 80.2955V89.4165L151.409 84.1412V75.0143" fill="#2F4B0C"/>
<path d="M133.161 75.0143L142.292 80.2955V89.4165L133.161 84.1412V75.0143" fill="#5F971C"/>
<path d="M151.405 75.0143L142.292 69.7428L133.161 75.026L142.292 80.2916V80.2897V80.2916L151.405 75.0143Z" fill="#6CAD21"/>
<path d="M148.046 69.6981L142.572 72.8668V78.3367L148.046 75.1738V69.6981" fill="#2F4B0C"/>
<path d="M137.098 69.6981L142.572 72.8668V78.3367L137.098 75.1738V69.6981" fill="#5F971C"/>
<path d="M148.042 69.6981L142.572 66.5352L137.098 69.7059L142.572 72.8668V72.863V72.8668L148.042 69.6981Z" fill="#80CC28"/>
<path d="M146.564 65.1094L142.512 67.4534V71.4994L146.564 69.1574V65.1094Z" fill="#2F4B0C"/>
<path d="M138.47 65.1094L142.512 67.4534V71.4994L138.47 69.1574V65.1094Z" fill="#5F971C"/>
<path d="M146.56 65.1092L142.512 62.7731L138.47 65.1151L142.512 67.4532V67.4513V67.4532L146.56 65.1092Z" fill="#80CC28"/>
<path d="M124.457 90.7102L115.336 95.9895V105.11L124.457 99.8332V90.7102Z" fill="#2F4B0C"/>
<path d="M106.212 90.7102L115.336 95.9895V105.11L106.212 99.8332V90.7102Z" fill="#5F971C"/>
<path d="M124.449 90.7083L115.336 85.4387L106.212 90.718L115.336 95.9836V95.9817V95.9836L124.449 90.7083" fill="#6CAD21"/>
<path d="M121.095 85.3919L115.619 88.5607V94.0325L121.095 90.8677V85.3919Z" fill="#2F4B0C"/>
<path d="M110.145 85.3919L115.619 88.5607V94.0325L110.145 90.8677V85.3919" fill="#5F971C"/>
<path d="M121.087 85.3919L115.619 82.229L110.145 85.3958L115.619 88.5548L121.087 85.3919" fill="#80CC28"/>
<path d="M119.61 80.8032L115.562 83.1471V87.1892L119.61 84.8472V80.8032Z" fill="#2F4B0C"/>
<path d="M111.513 80.8032L115.562 83.1471V87.1892L111.513 84.8472V80.8032Z" fill="#5F971C"/>
<path d="M119.608 80.8031L115.562 78.465L111.513 80.807L115.562 83.1451V83.1412V83.1451L119.608 80.8031Z" fill="#80CC28"/>
<path d="M97.5064 106.402L88.3882 111.679V120.802L97.5064 115.527V106.402Z" fill="#2F4B0C"/>
<path d="M79.2624 106.402L88.3881 111.679V120.802L79.2624 115.527V106.402Z" fill="#5F971C"/>
<path d="M97.5015 106.4L88.3881 101.132L79.2624 106.412L88.3881 111.677L97.5015 106.4Z" fill="#6CAD21"/>
<path d="M94.144 101.086L88.6693 104.251V109.726L94.144 106.559V101.086Z" fill="#2F4B0C"/>
<path d="M83.1938 101.086L88.6691 104.251V109.726L83.1938 106.559V101.086Z" fill="#5F971C"/>
<path d="M94.1355 101.086L88.6691 97.9247L83.1938 101.092L88.6691 104.251L94.1355 101.086Z" fill="#80CC28"/>
<path d="M92.6613 96.4951L88.6099 98.8351V102.885L92.6613 100.539V96.4951Z" fill="#2F4B0C"/>
<path d="M84.5638 96.4951L88.6098 98.8351V102.885L84.5638 100.539V96.4951Z" fill="#5F971C"/>
<path d="M92.6537 96.4951L88.6098 94.1589L84.5638 96.5009L88.6098 98.8351L92.6537 96.4951Z" fill="#80CC28"/>
<path d="M70.5561 122.096L61.4341 127.373V136.496L70.5561 131.217V122.096Z" fill="#2F4B0C"/>
<path d="M52.3061 122.096L61.4341 127.373V136.496L52.3061 131.217V122.096Z" fill="#5F971C"/>
<path d="M70.5501 122.096L61.4341 116.824L52.3061 122.104L61.4341 127.371V127.367V127.371L70.5501 122.096" fill="#6CAD21"/>
<path d="M67.1923 116.778L61.7191 119.946V125.418L67.1923 122.253V116.778Z" fill="#2F4B0C"/>
<path d="M56.243 116.778L61.7191 119.946V125.418L56.243 122.253V116.778Z" fill="#5F971C"/>
<path d="M67.1863 116.778L61.7191 113.613L56.243 116.784L61.7191 119.945V119.943V119.945L67.1863 116.778Z" fill="#80CC28"/>
<path d="M65.7107 112.187L61.6585 114.533V118.577L65.7107 116.237V112.187Z" fill="#2F4B0C"/>
<path d="M57.6122 112.187L61.6584 114.533V118.577L57.6122 116.237V112.187Z" fill="#5F971C"/>
<path d="M65.706 112.187L61.6584 109.855L57.6122 112.195L61.6584 114.531V114.529V114.531L65.706 112.187Z" fill="#80CC28"/>
<path d="M43.6046 137.79L34.4841 143.065V152.19L43.6046 146.911V137.79" fill="#2F4B0C"/>
<path d="M25.3583 137.79L34.484 143.065V152.19L25.3583 146.911V137.79" fill="#5F971C"/>
<path d="M43.5992 137.788L34.484 132.518L25.3583 137.797L34.484 143.063V143.061V143.063L43.5992 137.788" fill="#6CAD21"/>
<path d="M40.2399 132.471L34.7661 135.638V141.112L40.2399 137.945V132.471Z" fill="#2F4B0C"/>
<path d="M29.2905 132.471L34.7661 135.638V141.112L29.2905 137.945V132.471" fill="#5F971C"/>
<path d="M40.2369 132.471L34.7661 129.31L29.2905 132.475L34.7661 135.634L40.2369 132.471Z" fill="#80CC28"/>
<path d="M38.7606 127.883L34.7091 130.225V134.269L38.7606 131.925V127.883Z" fill="#2F4B0C"/>
<path d="M30.6629 127.883L34.7091 130.225V134.269L30.6629 131.925V127.883Z" fill="#5F971C"/>
<path d="M38.7545 127.883L34.7091 125.545L30.6629 127.887L34.7091 130.221L38.7545 127.883Z" fill="#80CC28"/>
<path d="M93.5247 206.012L74.1616 194.87L325.294 52.5136L334.046 57.6191L342.798 62.7246L93.5247 206.012Z" fill="#9D794A"/>
<path d="M56.3274 184.954L36.9644 173.812L288.097 31.362L296.849 36.4675L305.601 41.573L56.3274 184.954Z" fill="#9D794A"/>
<path d="M333.189 54.831L324.068 60.1083V69.2333L333.189 63.9559V54.831Z" fill="#2F4B0C"/>
<path d="M314.946 54.831L324.069 60.1083V69.2333L314.946 63.9559V54.831Z" fill="#5F971C"/>
<path d="M333.186 54.829L324.069 49.5594L314.946 54.8387L324.069 60.1063V60.1043V60.1063L333.186 54.829Z" fill="#6CAD21"/>
<path d="M329.826 49.5127L324.352 52.6815V58.1533L329.826 54.9885V49.5127Z" fill="#2F4B0C"/>
<path d="M318.877 49.5127L324.353 52.6815V58.1533L318.877 54.9885V49.5127Z" fill="#5F971C"/>
<path d="M329.821 49.5128L324.353 46.3518L318.877 49.5205L324.353 52.6795V52.6776V52.6795L329.821 49.5128" fill="#80CC28"/>
<path d="M328.342 44.924L324.292 47.268V51.3121L328.342 48.9701V44.924Z" fill="#2F4B0C"/>
<path d="M320.25 44.924L324.292 47.268V51.3121L320.25 48.9701V44.924Z" fill="#5F971C"/>
<path d="M328.338 44.9242L324.292 42.588L320.25 44.93L324.292 47.2662V47.2643V47.2662L328.338 44.9242Z" fill="#80CC28"/>
<path d="M306.239 70.5249L297.116 75.8022V84.9252L306.239 79.6459V70.5249Z" fill="#2F4B0C"/>
<path d="M287.995 70.5249L297.116 75.8022V84.9252L287.995 79.6459V70.5249Z" fill="#5F971C"/>
<path d="M306.233 70.5228L297.116 65.2533L287.995 70.5345L297.116 75.7982L306.233 70.5228" fill="#6CAD21"/>
<path d="M302.872 65.2066L297.402 68.3753V73.8491L302.872 70.6804V65.2066Z" fill="#2F4B0C"/>
<path d="M291.93 65.2066L297.402 68.3753V73.8491L291.93 70.6804V65.2066Z" fill="#5F971C"/>
<path d="M302.872 65.2067L297.402 62.0439L291.93 65.2106L297.402 68.3735L302.872 65.2067Z" fill="#80CC28"/>
<path d="M301.393 60.618L297.339 62.96V67.006L301.393 64.662V60.618Z" fill="#2F4B0C"/>
<path d="M293.297 60.618L297.34 62.96V67.006L293.297 64.662V60.618Z" fill="#5F971C"/>
<path d="M301.39 60.6178L297.34 58.2797L293.297 60.6217L297.34 62.9599V62.9579V62.9599L301.39 60.6178Z" fill="#80CC28"/>
<path d="M279.286 86.2168L270.169 91.4941V100.619L279.286 95.3397V86.2168Z" fill="#2F4B0C"/>
<path d="M261.04 86.2168L270.169 91.4941V100.619L261.04 95.3397V86.2168Z" fill="#5F971C"/>
<path d="M279.28 86.2166L270.169 80.9452L261.04 86.2264L270.169 91.492V91.4901V91.492L279.28 86.2166" fill="#6CAD21"/>
<path d="M275.927 80.9003L270.449 84.069V89.5389L275.927 86.374V80.9003" fill="#2F4B0C"/>
<path d="M264.976 80.9003L270.449 84.069V89.5389L264.976 86.374V80.9003" fill="#5F971C"/>
<path d="M275.917 80.9005L270.449 77.7376L264.976 80.9064L270.449 84.0692V84.0654V84.0692L275.917 80.9005Z" fill="#80CC28"/>
<path d="M274.443 76.3098L270.389 78.6537V82.6978L274.443 80.3558V76.3098Z" fill="#2F4B0C"/>
<path d="M266.343 76.3098L270.389 78.6537V82.6978L266.343 80.3558V76.3098Z" fill="#5F971C"/>
<path d="M274.437 76.3098L270.389 73.9736L266.343 76.3156L270.389 78.6518V78.6499V78.6518L274.437 76.3098Z" fill="#80CC28"/>
<path d="M225.387 117.604L216.266 122.882V132.003L225.387 126.725V117.604Z" fill="#2F4B0C"/>
<path d="M207.139 117.604L216.266 122.882V132.003L207.139 126.725V117.604Z" fill="#5F971C"/>
<path d="M225.381 117.602L216.266 112.333L207.139 117.614L216.266 122.878L225.381 117.602" fill="#6CAD21"/>
<path d="M222.022 112.288L216.55 115.453V120.927L222.022 117.76V112.288Z" fill="#2F4B0C"/>
<path d="M211.072 112.288L216.55 115.453V120.927L211.072 117.76V112.288Z" fill="#5F971C"/>
<path d="M222.018 112.288L216.55 109.123L211.072 112.29L216.55 115.453V115.451V115.453L222.018 112.288Z" fill="#80CC28"/>
<path d="M220.539 107.696L216.488 110.04V114.086L220.539 111.742V107.696Z" fill="#2F4B0C"/>
<path d="M212.443 107.696L216.487 110.04V114.086L212.443 111.742V107.696Z" fill="#5F971C"/>
<path d="M220.535 107.695L216.487 105.359L212.443 107.701L216.487 110.039V110.036V110.039L220.535 107.695Z" fill="#80CC28"/>
<path d="M254.56 101.226L245.439 106.504V115.625L254.56 110.347V101.226Z" fill="#2F4B0C"/>
<path d="M236.312 101.226L245.439 106.504V115.625L236.312 110.347V101.226Z" fill="#5F971C"/>
<path d="M254.554 101.225L245.439 95.955L236.312 101.236L245.439 106.5L254.554 101.225" fill="#6CAD21"/>
<path d="M251.195 95.9102L245.723 99.075V104.549L251.195 101.382V95.9102Z" fill="#2F4B0C"/>
<path d="M240.245 95.9102L245.723 99.075V104.549L240.245 101.382V95.9102Z" fill="#5F971C"/>
<path d="M251.191 95.9102L245.723 92.7454L240.245 95.9122L245.723 99.075V99.0731V99.075L251.191 95.9102Z" fill="#80CC28"/>
<path d="M249.712 91.3176L245.661 93.6616V97.7076L249.712 95.3637V91.3176Z" fill="#2F4B0C"/>
<path d="M241.616 91.3176L245.661 93.6616V97.7076L241.616 95.3637V91.3176Z" fill="#5F971C"/>
<path d="M249.708 91.3177L245.661 88.9815L241.616 91.3236L245.661 93.6617V93.6578V93.6617L249.708 91.3177Z" fill="#80CC28"/>
<path d="M216.633 80.8045L207.512 86.0817V95.2028L216.633 89.9255V80.8045Z" fill="#2F4B0C"/>
<path d="M198.385 80.8045L207.512 86.0817V95.2028L198.385 89.9255V80.8045Z" fill="#5F971C"/>
<path d="M216.627 80.8026L207.512 75.533L198.385 80.8142L207.512 86.0779L216.627 80.8026" fill="#6CAD21"/>
<path d="M213.268 75.4883L207.796 78.6532V84.1269L213.268 80.9602V75.4883Z" fill="#2F4B0C"/>
<path d="M202.319 75.4883L207.796 78.6532V84.1269L202.319 80.9602V75.4883Z" fill="#5F971C"/>
<path d="M213.264 75.4883L207.796 72.3234L202.319 75.4902L207.796 78.6531V78.6512V78.6531L213.264 75.4883Z" fill="#80CC28"/>
<path d="M211.786 70.8956L207.734 73.2396V77.2856L211.786 74.9417V70.8956Z" fill="#2F4B0C"/>
<path d="M203.69 70.8956L207.734 73.2396V77.2856L203.69 74.9417V70.8956Z" fill="#5F971C"/>
<path d="M211.782 70.8955L207.734 68.5593L203.69 70.9013L207.734 73.2394V73.2355V73.2394L211.782 70.8955Z" fill="#80CC28"/>
<path d="M207.881 42.8779L198.76 48.1552V57.2762L207.881 51.9989V42.8779Z" fill="#2F4B0C"/>
<path d="M189.633 42.8779L198.76 48.1552V57.2762L189.633 51.9989V42.8779Z" fill="#5F971C"/>
<path d="M207.875 42.8758L198.76 37.6063L189.633 42.8875L198.76 48.1512L207.875 42.8758" fill="#6CAD21"/>
<path d="M204.516 37.5615L199.044 40.7263V46.2001L204.516 43.0333V37.5615Z" fill="#2F4B0C"/>
<path d="M193.566 37.5615L199.044 40.7263V46.2001L193.566 43.0333V37.5615Z" fill="#5F971C"/>
<path d="M204.512 37.5615L199.044 34.3967L193.566 37.5635L199.044 40.7263V40.7244V40.7263L204.512 37.5615Z" fill="#80CC28"/>
<path d="M203.033 32.9689L198.982 35.3129V39.3589L203.033 37.0149V32.9689Z" fill="#2F4B0C"/>
<path d="M194.938 32.9689L198.982 35.3129V39.3589L194.938 37.0149V32.9689Z" fill="#5F971C"/>
<path d="M203.03 32.969L198.982 30.6328L194.938 32.9749L198.982 35.313V35.3091V35.313L203.03 32.969Z" fill="#80CC28"/>
<path d="M198.432 133.296L189.313 138.574V147.697L198.432 142.419V133.296Z" fill="#2F4B0C"/>
<path d="M180.188 133.296L189.313 138.574V147.697L180.188 142.419V133.296Z" fill="#5F971C"/>
<path d="M198.428 133.294L189.313 128.025L180.188 133.304L189.313 138.572V138.57V138.572L198.428 133.294Z" fill="#6CAD21"/>
<path d="M195.069 127.978L189.595 131.149V136.619L195.069 133.454V127.978" fill="#2F4B0C"/>
<path d="M184.121 127.978L189.595 131.149V136.619L184.121 133.454V127.978" fill="#5F971C"/>
<path d="M195.063 127.978L189.595 124.815L184.121 127.986L189.595 131.145V131.143V131.145L195.063 127.978Z" fill="#80CC28"/>
<path d="M193.589 123.389L189.539 125.733V129.777L193.589 127.437V123.389Z" fill="#2F4B0C"/>
<path d="M185.491 123.389L189.539 125.733V129.777L185.491 127.437V123.389Z" fill="#5F971C"/>
<path d="M193.585 123.389L189.539 121.053L185.491 123.393L189.539 125.731V125.729V125.731L193.585 123.389Z" fill="#80CC28"/>
<path d="M171.482 148.988L162.366 154.267V163.392L171.482 158.111V148.988Z" fill="#2F4B0C"/>
<path d="M153.237 148.988L162.366 154.267V163.392L153.237 158.111V148.988Z" fill="#5F971C"/>
<path d="M171.478 148.986L162.366 143.719L153.237 149L162.366 154.265L171.478 148.986Z" fill="#6CAD21"/>
<path d="M168.118 143.672L162.644 146.839V152.312L168.118 149.146V143.672Z" fill="#2F4B0C"/>
<path d="M157.171 143.672L162.644 146.839V152.312L157.171 149.146V143.672Z" fill="#5F971C"/>
<path d="M168.114 143.672L162.644 140.509L157.171 143.676L162.644 146.837L168.114 143.672Z" fill="#80CC28"/>
<path d="M166.64 139.083L162.588 141.425V145.471L166.64 143.127V139.083Z" fill="#2F4B0C"/>
<path d="M158.54 139.083L162.588 141.425V145.471L158.54 143.127V139.083Z" fill="#5F971C"/>
<path d="M166.632 139.083L162.588 136.745L158.54 139.085L162.588 141.423L166.632 139.083Z" fill="#80CC28"/>
<path d="M144.533 164.682L135.41 169.961V179.082L144.533 173.805V164.682Z" fill="#2F4B0C"/>
<path d="M130.374 227.164L111.004 216.023L363.22 74.3942L367.232 76.5822L371.243 78.7703L379.995 83.8758L130.374 227.164Z" fill="#9D794A"/>
<path d="M126.285 164.682L135.41 169.961V179.082L126.285 173.805V164.682Z" fill="#5F971C"/>
<path d="M144.527 164.682L135.41 159.412L126.285 164.694L135.41 169.957L144.527 164.682" fill="#6CAD21"/>
<path d="M141.17 159.366L135.692 162.535V168.006L141.17 164.838V159.366Z" fill="#2F4B0C"/>
<path d="M130.22 159.366L135.692 162.535V168.006L130.22 164.838V159.366Z" fill="#5F971C"/>
<path d="M141.162 159.366L135.692 156.203L130.22 159.372L135.692 162.535V162.531V162.535L141.162 159.366Z" fill="#80CC28"/>
<path d="M139.687 154.775L135.635 157.119V161.163L139.687 158.819V154.775Z" fill="#2F4B0C"/>
<path d="M131.589 154.775L135.635 157.119V161.163L131.589 158.819V154.775Z" fill="#5F971C"/>
<path d="M139.683 154.775L135.635 152.439L131.589 154.781L135.635 157.115V157.113V157.115L139.683 154.775Z" fill="#80CC28"/>
<path d="M117.581 180.376L108.461 185.651V194.776L117.581 189.497V180.376" fill="#2F4B0C"/>
<path d="M99.3352 180.376L108.461 185.651V194.776L99.3352 189.497V180.376" fill="#5F971C"/>
<path d="M117.577 180.374L108.461 175.102L99.3352 180.382L108.461 185.651V185.647V185.651L117.577 180.374Z" fill="#6CAD21"/>
<path d="M114.219 175.056L108.743 178.226V183.698L114.219 180.533V175.056Z" fill="#2F4B0C"/>
<path d="M103.27 175.056L108.743 178.226V183.698L103.27 180.533V175.056Z" fill="#5F971C"/>
<path d="M114.214 175.056L108.743 171.895L103.27 175.064L108.743 178.224V178.223V178.224L114.214 175.056Z" fill="#80CC28"/>
<path d="M112.737 170.469L108.685 172.811V176.857L112.737 174.515V170.469Z" fill="#2F4B0C"/>
<path d="M104.64 170.469L108.685 172.811V176.857L104.64 174.515V170.469Z" fill="#5F971C"/>
<path d="M112.729 170.469L108.685 168.133L104.64 170.475L108.685 172.809L112.729 170.469Z" fill="#80CC28"/>
<path d="M289.179 123.063L280.062 128.338V137.463L289.179 132.182V123.063" fill="#2F4B0C"/>
<path d="M289.176 123.061L280.062 117.789L270.935 123.07L280.062 128.338L289.176 123.061Z" fill="#6CAD21"/>
<path d="M285.816 117.743L280.342 120.911V126.385L285.816 123.218V117.743Z" fill="#2F4B0C"/>
<path d="M274.869 117.743L280.343 120.911V126.385L274.869 123.218V117.743Z" fill="#5F971C"/>
<path d="M285.811 117.743L280.343 114.58L274.869 117.748L280.343 120.909L285.811 117.743Z" fill="#80CC28"/>
<path d="M284.332 113.154L280.286 115.498V119.544L284.332 117.202V113.154Z" fill="#2F4B0C"/>
<path d="M276.238 113.154L280.286 115.498V119.544L276.238 117.202V113.154Z" fill="#5F971C"/>
<path d="M284.328 113.154L280.286 110.819L276.238 113.159L280.286 115.496L284.328 113.154Z" fill="#80CC28"/>
<path d="M270.935 123.063L280.062 128.338V137.463L270.935 132.182V123.063" fill="#5F971C"/>
<path d="M289.179 123.063L280.062 128.338V137.463L289.179 132.182V123.063" fill="#2F4B0C"/>
<path d="M289.176 123.061L280.062 117.789L270.935 123.07L280.062 128.338L289.176 123.061Z" fill="#6CAD21"/>
<path d="M285.816 117.743L280.342 120.911V126.385L285.816 123.218V117.743Z" fill="#2F4B0C"/>
<path d="M274.869 117.743L280.343 120.911V126.385L274.869 123.218V117.743Z" fill="#5F971C"/>
<path d="M285.811 117.743L280.343 114.58L274.869 117.748L280.343 120.909L285.811 117.743Z" fill="#80CC28"/>
<path d="M284.332 113.154L280.286 115.498V119.544L284.332 117.202V113.154Z" fill="#2F4B0C"/>
<path d="M276.238 113.154L280.286 115.498V119.544L276.238 117.202V113.154Z" fill="#5F971C"/>
<path d="M284.328 113.154L280.286 110.819L276.238 113.159L280.286 115.496L284.328 113.154Z" fill="#80CC28"/>
<path d="M297.578 108.518L306.705 113.793V122.918L297.578 117.637V108.518" fill="#5F971C"/>
<path d="M315.822 108.518L306.705 113.793V122.918L315.822 117.637V108.518" fill="#2F4B0C"/>
<path d="M315.818 108.516L306.705 103.245L297.578 108.526L306.705 113.793L315.818 108.516Z" fill="#6CAD21"/>
<path d="M312.459 103.198L306.985 106.367V111.84L312.459 108.674V103.198Z" fill="#2F4B0C"/>
<path d="M301.511 103.198L306.985 106.367V111.84L301.511 108.674V103.198Z" fill="#5F971C"/>
<path d="M312.453 103.198L306.985 100.035L301.511 103.204L306.985 106.365L312.453 103.198Z" fill="#80CC28"/>
<path d="M310.975 98.6093L306.929 100.953V104.999L310.975 102.657V98.6093Z" fill="#2F4B0C"/>
<path d="M302.881 98.6093L306.928 100.953V104.999L302.881 102.657V98.6093Z" fill="#5F971C"/>
<path d="M310.971 98.6092L306.928 96.2749L302.881 98.615L306.928 100.951L310.971 98.6092Z" fill="#80CC28"/>
<path d="M323.835 93.9309L332.962 99.2062V108.331L323.835 103.05V93.9309" fill="#5F971C"/>
<path d="M342.079 93.9309L332.962 99.2062V108.331L342.079 103.05V93.9309" fill="#2F4B0C"/>
<path d="M342.075 93.929L332.962 88.6575L323.835 93.9387L332.962 99.2063L342.075 93.929Z" fill="#6CAD21"/>
<path d="M338.716 88.6107L333.242 91.7795V97.2532L338.716 94.0865V88.6107Z" fill="#2F4B0C"/>
<path d="M327.768 88.6107L333.242 91.7795V97.2532L327.768 94.0865V88.6107Z" fill="#5F971C"/>
<path d="M338.71 88.6107L333.242 85.4478L327.768 88.6166L333.242 91.7775L338.71 88.6107Z" fill="#80CC28"/>
<path d="M337.232 84.022L333.186 86.366V90.412L337.232 88.07V84.022Z" fill="#2F4B0C"/>
<path d="M329.137 84.022L333.185 86.366V90.412L329.137 88.07V84.022Z" fill="#5F971C"/>
<path d="M337.228 84.0221L333.185 81.6879L329.137 84.0279L333.185 86.3641L337.228 84.0221Z" fill="#80CC28"/>
<path d="M262.231 138.754L253.11 144.032V153.157L262.231 147.877V138.754Z" fill="#2F4B0C"/>
<path d="M243.985 138.754L253.11 144.032V153.157L243.985 147.877V138.754Z" fill="#5F971C"/>
<path d="M262.225 138.753L253.11 133.485L243.985 138.766L253.11 144.028L262.225 138.753" fill="#6CAD21"/>
<path d="M258.866 133.44L253.394 136.605V142.079L258.866 138.912V133.44Z" fill="#2F4B0C"/>
<path d="M247.914 133.44L253.394 136.605V142.079L247.914 138.912V133.44Z" fill="#5F971C"/>
<path d="M258.862 133.44L253.394 130.277L247.914 133.442L253.394 136.605V136.601V136.605L258.862 133.44Z" fill="#80CC28"/>
<path d="M257.383 128.85L253.335 131.188V135.236L257.383 132.892V128.85Z" fill="#2F4B0C"/>
<path d="M249.284 128.85L253.336 131.188V135.236L249.284 132.892V128.85Z" fill="#5F971C"/>
<path d="M257.382 128.849L253.336 126.511L249.284 128.851L253.336 131.188V131.186V131.188L257.382 128.849Z" fill="#80CC28"/>
<path d="M235.28 154.448L226.159 159.726V168.849L235.28 163.571V154.448" fill="#2F4B0C"/>
<path d="M217.032 154.448L226.159 159.726V168.849L217.032 163.571V154.448" fill="#5F971C"/>
<path d="M235.276 154.445L226.159 149.175L217.032 154.456L226.159 159.724L235.276 154.445Z" fill="#6CAD21"/>
<path d="M231.917 149.128L226.439 152.299V157.769L231.917 154.604V149.128" fill="#2F4B0C"/>
<path d="M220.965 149.128L226.439 152.299V157.769L220.965 154.604V149.128" fill="#5F971C"/>
<path d="M231.907 149.128L226.439 145.967L220.965 149.138L226.439 152.297V152.295V152.297L231.907 149.128Z" fill="#80CC28"/>
<path d="M230.435 144.539L226.383 146.883V150.929L230.435 148.587V144.539Z" fill="#2F4B0C"/>
<path d="M222.339 144.539L226.383 146.883V150.929L222.339 148.587V144.539Z" fill="#5F971C"/>
<path d="M230.429 144.539L226.383 142.205L222.339 144.547L226.383 146.883V146.881V146.883L230.429 144.539Z" fill="#80CC28"/>
<path d="M208.326 170.14L199.208 175.419V184.542L208.326 179.261V170.14Z" fill="#2F4B0C"/>
<path d="M190.081 170.14L199.208 175.419V184.542L190.081 179.261V170.14Z" fill="#5F971C"/>
<path d="M208.322 170.138L199.208 164.869L190.081 170.15L199.208 175.42V175.414V175.42L208.322 170.138Z" fill="#6CAD21"/>
<path d="M204.962 164.822L199.488 167.991V173.465L204.962 170.298V164.822Z" fill="#2F4B0C"/>
<path d="M194.017 164.822L199.488 167.991V173.465L194.017 170.298V164.822Z" fill="#5F971C"/>
<path d="M204.958 164.822L199.488 161.659L194.017 164.828L199.488 167.989L204.958 164.822Z" fill="#80CC28"/>
<path d="M203.482 160.233L199.432 162.577V166.621L203.482 164.281V160.233Z" fill="#2F4B0C"/>
<path d="M195.384 160.233L199.432 162.577V166.621L195.384 164.281V160.233Z" fill="#5F971C"/>
<path d="M203.476 160.233L199.432 157.897L195.384 160.237L199.432 162.575L203.476 160.233Z" fill="#80CC28"/>
<path d="M181.377 185.832L172.256 191.111V200.236L181.377 194.959V185.832Z" fill="#2F4B0C"/>
<path d="M163.127 185.832L172.256 191.111V200.236L163.127 194.959V185.832Z" fill="#5F971C"/>
<path d="M181.373 185.832L172.256 180.565L163.127 185.846L172.256 191.108L181.373 185.832" fill="#6CAD21"/>
<path d="M178.013 180.516L172.54 183.683V189.158L178.013 185.99V180.516Z" fill="#2F4B0C"/>
<path d="M167.066 180.516L172.54 183.683V189.158L167.066 185.99V180.516Z" fill="#5F971C"/>
<path d="M178.008 180.516L172.54 177.355L167.066 180.522L172.54 183.683V183.681V183.683L178.008 180.516Z" fill="#80CC28"/>
<path d="M176.529 175.929L172.483 178.267V182.315L176.529 179.971V175.929Z" fill="#2F4B0C"/>
<path d="M168.433 175.929L172.483 178.267V182.315L168.433 179.971V175.929Z" fill="#5F971C"/>
<path d="M176.525 175.929L172.483 173.591L168.433 175.931L172.483 178.267V178.265V178.267L176.525 175.929Z" fill="#80CC28"/>
<path d="M154.426 201.528L145.303 206.803V215.928L154.426 210.647V201.528Z" fill="#2F4B0C"/>
<path d="M136.182 201.528L145.303 206.803V215.928L136.182 210.647V201.528Z" fill="#5F971C"/>
<path d="M154.418 201.526L145.303 196.256L136.182 201.534L145.303 206.803V206.801V206.803L154.418 201.526Z" fill="#6CAD21"/>
<path d="M151.061 196.208L145.589 199.378V204.848L151.061 201.685V196.208" fill="#2F4B0C"/>
<path d="M140.111 196.208L145.589 199.378V204.848L140.111 201.685V196.208" fill="#5F971C"/>
<path d="M151.055 196.208L145.589 193.045L140.111 196.214L145.589 199.377V199.375V199.377L151.055 196.208Z" fill="#80CC28"/>
<path d="M149.582 191.619L145.529 193.963V198.009L149.582 195.665V191.619Z" fill="#2F4B0C"/>
<path d="M141.485 191.619L145.529 193.963V198.009L141.485 195.665V191.619Z" fill="#5F971C"/>
<path d="M149.575 191.619L145.529 189.285L141.485 191.629L145.529 193.961L149.575 191.619Z" fill="#80CC28"/>
<path d="M166.691 249.043L147.33 237.905L398.229 94.0867L405.523 98.4629L417.193 105.027L166.691 249.043Z" fill="#9D794A"/>
<path d="M353.751 128.942L344.628 134.219V143.342L353.751 138.061V128.942Z" fill="#2F4B0C"/>
<path d="M335.505 128.942L344.628 134.219V143.342L335.505 138.061V128.942Z" fill="#5F971C"/>
<path d="M353.745 128.938L344.628 123.669L335.505 128.95L344.628 134.215V134.213V134.215L353.745 128.938Z" fill="#6CAD21"/>
<path d="M350.383 123.622L344.913 126.791V132.264L350.383 129.098V123.622Z" fill="#2F4B0C"/>
<path d="M339.438 123.622L344.913 126.791V132.264L339.438 129.098V123.622Z" fill="#5F971C"/>
<path d="M350.379 123.622L344.913 120.461L339.438 123.626L344.913 126.787L350.379 123.622Z" fill="#80CC28"/>
<path d="M348.901 119.033L344.855 121.377V125.421L348.901 123.079V119.033Z" fill="#2F4B0C"/>
<path d="M340.805 119.033L344.855 121.377V125.421L340.805 123.079V119.033Z" fill="#5F971C"/>
<path d="M348.899 119.033L344.855 116.697L340.805 119.037L344.855 121.373L348.899 119.033Z" fill="#80CC28"/>
<path d="M326.029 144.213L316.906 149.492V158.615L326.029 153.336V144.213Z" fill="#2F4B0C"/>
<path d="M307.779 144.213L316.906 149.492V158.615L307.779 153.336V144.213Z" fill="#5F971C"/>
<path d="M326.021 144.213L316.906 138.943L307.779 144.222L316.906 149.492V149.488V149.492L326.021 144.213Z" fill="#6CAD21"/>
<path d="M322.662 138.895L317.186 142.063V147.537L322.662 144.37V138.895Z" fill="#2F4B0C"/>
<path d="M311.713 138.895L317.186 142.063V147.537L311.713 144.37V138.895Z" fill="#5F971C"/>
<path d="M322.658 138.895L317.186 135.732L311.713 138.9L317.186 142.061L322.658 138.895Z" fill="#80CC28"/>
<path d="M321.178 134.306L317.128 136.65V140.696L321.178 138.352V134.306Z" fill="#2F4B0C"/>
<path d="M313.084 134.306L317.128 136.65V140.696L313.084 138.352V134.306Z" fill="#5F971C"/>
<path d="M321.176 134.306L317.128 131.97L313.084 134.314L317.128 136.648L321.176 134.306Z" fill="#80CC28"/>
<path d="M299.073 159.909L289.952 165.184V174.305L299.073 169.028V159.909" fill="#2F4B0C"/>
<path d="M280.827 159.909L289.952 165.184V174.305L280.827 169.028V159.909" fill="#5F971C"/>
<path d="M299.069 159.905L289.952 154.635L280.827 159.914L289.952 165.182V165.18V165.182L299.069 159.905Z" fill="#6CAD21"/>
<path d="M295.711 154.59L290.236 157.755V163.231L295.711 160.062V154.59Z" fill="#2F4B0C"/>
<path d="M284.764 154.59L290.236 157.755V163.231L284.764 160.062V154.59Z" fill="#5F971C"/>
<path d="M295.707 154.59L290.236 151.427L284.764 154.594L290.236 157.755L295.707 154.59Z" fill="#80CC28"/>
<path d="M294.233 149.998L290.179 152.34V156.388L294.233 154.044V149.998Z" fill="#2F4B0C"/>
<path d="M286.133 149.998L290.179 152.34V156.388L286.133 154.044V149.998Z" fill="#5F971C"/>
<path d="M294.223 149.998L290.179 147.664L286.133 150.004L290.179 152.34L294.223 149.998Z" fill="#80CC28"/>
<path d="M272.122 175.597L263.001 180.878V190.001L272.122 184.721V175.597Z" fill="#2F4B0C"/>
<path d="M253.878 175.597L263.001 180.878V190.001L253.878 184.721V175.597Z" fill="#5F971C"/>
<path d="M272.12 175.596L263.001 170.327L253.878 175.608L263.001 180.874L272.12 175.596Z" fill="#6CAD21"/>
<path d="M268.759 170.282L263.285 173.449V178.921L268.759 175.754V170.282Z" fill="#2F4B0C"/>
<path d="M257.809 170.282L263.285 173.449V178.921L257.809 175.754V170.282Z" fill="#5F971C"/>
<path d="M268.755 170.282L263.285 167.121L257.809 170.288L263.285 173.449V173.447V173.449L268.755 170.282Z" fill="#80CC28"/>
<path d="M267.277 165.694L263.227 168.036V172.082L267.277 169.739V165.694Z" fill="#2F4B0C"/>
<path d="M259.181 165.694L263.227 168.036V172.082L259.181 169.739V165.694Z" fill="#5F971C"/>
<path d="M267.273 165.694L263.227 163.357L259.181 165.697L263.227 168.036V168.032V168.036L267.273 165.694Z" fill="#80CC28"/>
<path d="M245.173 191.292L236.052 196.574V205.695L245.173 200.413V191.292Z" fill="#2F4B0C"/>
<path d="M226.926 191.292L236.052 196.574V205.695L226.926 200.413V191.292Z" fill="#5F971C"/>
<path d="M245.166 191.292L236.052 186.021L226.926 191.302L236.052 196.568L245.166 191.292" fill="#6CAD21"/>
<path d="M241.812 185.974L236.334 189.143V194.617L241.812 191.45V185.974Z" fill="#2F4B0C"/>
<path d="M230.859 185.974L236.334 189.143V194.617L230.859 191.45V185.974Z" fill="#5F971C"/>
<path d="M241.802 185.974L236.334 182.811L230.859 185.98L236.334 189.139L241.802 185.974Z" fill="#80CC28"/>
<path d="M240.328 181.385L236.276 183.729V187.773L240.328 185.429V181.385Z" fill="#2F4B0C"/>
<path d="M232.234 181.385L236.276 183.729V187.773L232.234 185.429V181.385Z" fill="#5F971C"/>
<path d="M240.318 181.385L236.276 179.047L232.234 181.391L236.276 183.726L240.318 181.385Z" fill="#80CC28"/>
<path d="M218.221 206.986L209.1 212.263V221.384L218.221 216.109V206.986" fill="#2F4B0C"/>
<path d="M199.977 206.986L209.1 212.263V221.384L199.977 216.109V206.986" fill="#5F971C"/>
<path d="M218.215 206.984L209.1 201.715L199.977 206.994L209.1 212.26L218.215 206.984" fill="#6CAD21"/>
<path d="M214.859 201.668L209.384 204.835V210.31L214.859 207.142V201.668Z" fill="#2F4B0C"/>
<path d="M203.91 201.668L209.384 204.835V210.31L203.91 207.142V201.668Z" fill="#5F971C"/>
<path d="M214.852 201.668L209.384 198.507L203.91 201.674L209.384 204.835L214.852 201.668Z" fill="#80CC28"/>
<path d="M213.377 197.077L209.325 199.419V203.467L213.377 201.123V197.077Z" fill="#2F4B0C"/>
<path d="M205.277 197.077L209.325 199.419V203.467L205.277 201.123V197.077Z" fill="#5F971C"/>
<path d="M213.371 197.077L209.325 194.743L205.277 197.083L209.325 199.419L213.371 197.077Z" fill="#80CC28"/>
<path d="M191.27 222.678L182.151 227.955V237.08L191.27 231.801V222.678Z" fill="#2F4B0C"/>
<path d="M173.022 222.678L182.151 227.955V237.08L173.022 231.801V222.678Z" fill="#5F971C"/>
<path d="M191.266 222.678L182.151 217.408L173.022 222.686L182.151 227.951V227.949V227.951L191.266 222.678" fill="#6CAD21"/>
<path d="M187.909 217.36L182.433 220.529V226.002L187.909 222.836V217.36Z" fill="#2F4B0C"/>
<path d="M176.961 217.36L182.433 220.529V226.002L176.961 222.836V217.36Z" fill="#5F971C"/>
<path d="M187.903 217.36L182.433 214.197L176.961 217.366L182.433 220.529V220.527V220.529L187.903 217.36Z" fill="#80CC28"/>
<path d="M186.425 212.773L182.373 215.115V219.157L186.425 216.817V212.773Z" fill="#2F4B0C"/>
<path d="M178.329 212.773L182.373 215.115V219.157L178.329 216.817V212.773Z" fill="#5F971C"/>
<path d="M186.419 212.773L182.373 210.435L178.329 212.777L182.373 215.113V215.111V215.113L186.419 212.773Z" fill="#80CC28"/>
<path d="M204.826 268.754L185.46 257.611L437.817 116.581L453.863 126.063L204.826 268.754Z" fill="#9D794A"/>
<path d="M296.346 33.6791L287.227 38.9564V48.0832L296.346 42.802V33.6791Z" fill="#2F4B0C"/>
<path d="M278.098 33.6791L287.226 38.9564V48.0832L278.098 42.802V33.6791Z" fill="#5F971C"/>
<path d="M296.34 33.677L287.226 28.4074L278.098 33.6867L287.226 38.9562V38.9543V38.9562L296.34 33.677Z" fill="#6CAD21"/>
<path d="M292.982 28.3606L287.508 31.5293V37.0031L292.982 33.8363V28.3606" fill="#2F4B0C"/>
<path d="M282.029 28.3606L287.509 31.5293V37.0031L282.029 33.8363V28.3606" fill="#5F971C"/>
<path d="M292.975 28.3607L287.509 25.1998L282.029 28.3685L287.509 31.5275L292.975 28.3607" fill="#80CC28"/>
<path d="M291.5 23.7721L287.448 26.1161V30.1621L291.5 27.8182V23.7721Z" fill="#2F4B0C"/>
<path d="M283.4 23.7721L287.448 26.1161V30.1621L283.4 27.8182V23.7721Z" fill="#5F971C"/>
<path d="M291.496 23.772L287.448 21.4339L283.4 23.7798L287.448 26.1121L291.496 23.772" fill="#80CC28"/>
<path d="M269.397 49.3707L260.274 54.6519V63.7729L269.397 58.4956V49.3707Z" fill="#2F4B0C"/>
<path d="M251.149 49.3707L260.274 54.6519V63.7729L251.149 58.4956V49.3707Z" fill="#5F971C"/>
<path d="M269.389 49.3709L260.274 44.1014L251.149 49.3826L260.274 54.6483L269.389 49.3709Z" fill="#6CAD21"/>
<path d="M266.032 44.0546L260.556 47.2214V52.6991L266.032 49.5284V44.0546" fill="#2F4B0C"/>
<path d="M255.082 44.0546L260.556 47.2214V52.6991L255.082 49.5284V44.0546" fill="#5F971C"/>
<path d="M266.028 44.0546L260.556 40.8936L255.082 44.0585L260.556 47.2214V47.2194V47.2214L266.028 44.0546Z" fill="#80CC28"/>
<path d="M264.549 39.466L260.498 41.808V45.854L264.549 43.512V39.466Z" fill="#2F4B0C"/>
<path d="M256.451 39.466L260.497 41.808V45.854L256.451 43.512V39.466Z" fill="#5F971C"/>
<path d="M264.542 39.4659L260.497 37.1317L256.451 39.4697L260.497 41.8079V41.8059V41.8079L264.542 39.4659Z" fill="#80CC28"/>
<path d="M242.442 65.0645L233.319 70.3419V79.4668L242.442 74.1895V65.0645Z" fill="#2F4B0C"/>
<path d="M224.198 65.0645L233.319 70.3419V79.4668L224.198 74.1895V65.0645Z" fill="#5F971C"/>
<path d="M242.438 65.0646L233.319 59.7951L224.198 65.0744L233.319 70.34L242.438 65.0646" fill="#6CAD21"/>
<path d="M239.077 59.7484L233.605 62.9172V68.389L239.077 65.2222V59.7484Z" fill="#2F4B0C"/>
<path d="M228.13 59.7484L233.605 62.9172V68.389L228.13 65.2222V59.7484Z" fill="#5F971C"/>
<path d="M239.073 59.7485L233.605 56.5856L228.13 59.7543L233.605 62.9153V62.9114V62.9153L239.073 59.7485Z" fill="#80CC28"/>
<path d="M237.599 55.1597L233.547 57.5017V61.5477L237.599 59.2018V55.1597Z" fill="#2F4B0C"/>
<path d="M229.501 55.1597L233.547 57.5017V61.5477L229.501 59.2018V55.1597Z" fill="#5F971C"/>
<path d="M237.591 55.1598L233.547 52.8217L229.501 55.1637L233.547 57.4998V57.4979V57.4998L237.591 55.1598Z" fill="#80CC28"/>
<path d="M188.541 96.4504L179.42 101.732V110.851L188.541 105.575V96.4504" fill="#2F4B0C"/>
<path d="M170.295 96.4504L179.42 101.732V110.851L170.295 105.575V96.4504" fill="#5F971C"/>
<path d="M188.535 96.4502L179.42 91.1807L170.295 96.4619L179.42 101.728L188.535 96.4502Z" fill="#6CAD21"/>
<path d="M185.18 91.1362L179.702 94.301V99.7729L185.18 96.608V91.1362Z" fill="#2F4B0C"/>
<path d="M174.226 91.1362L179.702 94.301V99.7729L174.226 96.608V91.1362Z" fill="#5F971C"/>
<path d="M185.168 91.136L179.702 87.9711L174.226 91.1379L179.702 94.3008V94.2969V94.3008L185.168 91.136Z" fill="#80CC28"/>
<path d="M183.697 86.5455L179.646 88.8875V92.9335L183.697 90.5914V86.5455Z" fill="#2F4B0C"/>
<path d="M175.597 86.5455L179.645 88.8875V92.9335L175.597 90.5914V86.5455Z" fill="#5F971C"/>
<path d="M183.691 86.5455L179.645 84.2112L175.597 86.5494L179.645 88.8875V88.8855V88.8875L183.691 86.5455Z" fill="#80CC28"/>
<path d="M256.684 129.618L252.638 127.282L248.59 129.622L252.638 131.96V131.959V131.96L256.684 129.618Z" fill="#80CC28"/>
<path d="M161.59 112.144L152.471 117.422V126.548L161.59 121.269V112.144Z" fill="#2F4B0C"/>
<path d="M143.344 112.144L152.471 117.422V126.548L143.344 121.269V112.144Z" fill="#5F971C"/>
<path d="M161.582 112.142L152.471 106.875L143.344 112.152L152.471 117.42L161.582 112.142Z" fill="#6CAD21"/>
<path d="M158.227 106.828L152.751 109.997V115.469L158.227 112.302V106.828Z" fill="#2F4B0C"/>
<path d="M147.279 106.828L152.751 109.997V115.469L147.279 112.302V106.828Z" fill="#5F971C"/>
<path d="M158.221 106.828L152.751 103.665L147.279 106.834L152.751 109.991L158.221 106.828Z" fill="#80CC28"/>
<path d="M156.745 102.237L152.695 104.581V108.627L156.745 106.283V102.237Z" fill="#2F4B0C"/>
<path d="M148.647 102.237L152.695 104.581V108.627L148.647 106.283V102.237Z" fill="#5F971C"/>
<path d="M156.739 102.237L152.695 99.9012L148.647 102.241L152.695 104.579V104.577V104.579L156.739 102.237Z" fill="#80CC28"/>
<path d="M134.639 127.836L125.518 133.117V142.238L134.639 136.961V127.836Z" fill="#2F4B0C"/>
<path d="M116.392 127.836L125.518 133.117V142.238L116.392 136.961V127.836Z" fill="#5F971C"/>
<path d="M134.636 127.836L125.518 122.567L116.392 127.848L125.518 133.115V133.113V133.115L134.636 127.836Z" fill="#6CAD21"/>
<path d="M131.274 122.52L125.802 125.687V131.164L131.274 127.996V122.52Z" fill="#2F4B0C"/>
<path d="M120.323 122.52L125.802 125.687V131.164L120.323 127.996V122.52Z" fill="#5F971C"/>
<path d="M131.27 122.52L125.802 119.359L120.323 122.526L125.802 125.687L131.27 122.52Z" fill="#80CC28"/>
<path d="M129.792 117.931L125.742 120.273V124.319L129.792 121.977V117.931Z" fill="#2F4B0C"/>
<path d="M121.697 117.931L125.742 120.273V124.319L121.697 121.977V117.931Z" fill="#5F971C"/>
<path d="M129.788 117.931L125.742 115.595L121.697 117.935L125.742 120.271L129.788 117.931Z" fill="#80CC28"/>
<path d="M107.684 143.53L98.5678 148.809V157.93L107.684 152.653V143.53Z" fill="#2F4B0C"/>
<path d="M89.4404 143.53L98.5677 148.809V157.93L89.4404 152.653V143.53Z" fill="#5F971C"/>
<path d="M107.684 143.53L98.5677 138.258L89.4404 143.542L98.5677 148.807V148.803V148.807L107.684 143.53Z" fill="#6CAD21"/>
<path d="M104.324 138.214L98.8465 141.383V146.852L104.324 143.688V138.214" fill="#2F4B0C"/>
<path d="M93.3755 138.214L98.8464 141.383V146.852L93.3755 143.688V138.214" fill="#5F971C"/>
<path d="M104.317 138.214L98.8464 135.051L93.3755 138.219L98.8464 141.382V141.377V141.382L104.317 138.214Z" fill="#80CC28"/>
<path d="M102.843 133.625L98.7896 135.967V140.009L102.843 137.667V133.625Z" fill="#2F4B0C"/>
<path d="M94.7456 133.625L98.7895 135.967V140.009L94.7456 137.667V133.625Z" fill="#5F971C"/>
<path d="M102.84 133.625L98.7895 131.287L94.7456 133.629L98.7895 135.965V135.961V135.965L102.84 133.625Z" fill="#80CC28"/>
<path d="M80.7367 159.224L71.6186 164.499V173.628L80.7367 168.347V159.224" fill="#2F4B0C"/>
<path d="M62.4927 159.224L71.6184 164.499V173.628L62.4927 168.347V159.224" fill="#5F971C"/>
<path d="M80.7319 159.222L71.6184 153.952L62.4927 159.232L71.6184 164.499V164.497V164.499L80.7319 159.222Z" fill="#6CAD21"/>
<path d="M77.3742 153.906L71.8987 157.074V162.548L77.3742 159.381V153.906Z" fill="#2F4B0C"/>
<path d="M66.4227 153.906L71.8988 157.074V162.548L66.4227 159.381V153.906Z" fill="#5F971C"/>
<path d="M77.3668 153.906L71.8988 150.745L66.4227 153.912L71.8988 157.07L77.3668 153.906Z" fill="#80CC28"/>
<path d="M75.8887 149.317L71.8417 151.659V155.707L75.8887 153.361V149.317Z" fill="#2F4B0C"/>
<path d="M67.7925 149.317L71.8417 151.659V155.707L67.7925 153.361V149.317Z" fill="#5F971C"/>
<path d="M75.884 149.317L71.8417 146.979L67.7925 149.323L71.8417 151.657L75.884 149.317Z" fill="#80CC28"/>
<path d="M348.633 79.3436L357.76 84.619V93.7439L348.633 88.4627V79.3436Z" fill="#5F971C"/>
<path d="M366.873 79.3419L357.76 74.0704L348.633 79.3516L357.76 84.6192L366.873 79.3419Z" fill="#6CAD21"/>
<path d="M366.877 79.3436L357.76 84.619V93.7439L366.877 88.4627V79.3436" fill="#2F4B0C"/>
<path d="M352.566 74.0236L358.04 77.1923V82.6661L352.566 79.4993V74.0236Z" fill="#5F971C"/>
<path d="M363.514 74.0236L358.04 77.1923V82.6661L363.514 79.4993V74.0236Z" fill="#2F4B0C"/>
<path d="M363.508 74.0238L358.04 70.8609L352.566 74.0296L358.04 77.1906L363.508 74.0238Z" fill="#80CC28"/>
<path d="M362.029 69.435L357.983 71.7789V75.8249L362.029 73.4829V69.435Z" fill="#2F4B0C"/>
<path d="M353.936 69.435L357.984 71.7789V75.8249L353.936 73.4829V69.435Z" fill="#5F971C"/>
<path d="M362.026 69.4348L357.984 67.1006L353.936 69.4406L357.984 71.7768L362.026 69.4348Z" fill="#80CC28"/>
<path d="M447.203 130.989L445.144 132.02V135.179L447.203 134.146V130.989Z" fill="#322F30"/>
<path d="M443.199 130.892L445.144 132.02V135.179L443.199 134.049V130.892Z" fill="#3B3838"/>
<path d="M447.199 130.99L445.26 129.865L443.199 130.9L445.144 132.016L447.199 130.99" fill="#464344"/>
<path d="M446.587 115.893L445.159 116.611V131.563L446.587 130.85V115.893" fill="#A7A5A6"/>
<path d="M443.817 115.827L445.159 116.611V131.563L443.817 130.78V115.827Z" fill="#BFBEBE"/>
<path d="M446.587 115.893L445.243 115.113L443.817 115.833L445.159 116.609L446.587 115.893" fill="#DCDBDB"/>
<path d="M424 130.309L420.699 132.219V156.885L424 154.973V130.309" fill="#BDBCBC"/>
<path d="M417.396 130.309L420.699 132.219V156.885L417.396 154.973V130.309" fill="#D3D2D2"/>
<path d="M424 150.591L420.699 152.501V156.906L424 154.996V150.591" fill="#322F30"/>
<path d="M417.396 150.591L420.699 152.501V156.906L417.396 154.996V150.591" fill="#4F4C4C"/>
<path d="M424 130.309L420.699 128.403L417.396 130.311L420.699 132.219L424 130.309Z" fill="#F4F4F4"/>
<path d="M412.393 123.69L409.09 125.602V150.268L412.393 148.354V123.69Z" fill="#BDBCBC"/>
<path d="M405.786 123.69L409.09 125.602V150.268L405.786 148.354V123.69Z" fill="#D3D2D2"/>
<path d="M412.393 143.972L409.09 145.886V150.287L412.393 148.377V143.972Z" fill="#322F30"/>
<path d="M405.786 143.972L409.09 145.886V150.287L405.786 148.377V143.972Z" fill="#4F4C4C"/>
<path d="M412.393 123.69L409.09 121.784L405.786 123.698L409.09 125.602L412.393 123.69Z" fill="#F4F4F4"/>
<path d="M433.614 116.292L430.315 118.205V142.867L433.614 140.959V116.292Z" fill="#BDBCBC"/>
<path d="M427.009 116.292L430.315 118.205V142.867L427.009 140.959V116.292Z" fill="#D3D2D2"/>
<path d="M433.614 136.575L430.315 138.485V142.891L433.614 140.981V136.575Z" fill="#322F30"/>
<path d="M427.009 136.575L430.315 138.485V142.891L427.009 140.981V136.575Z" fill="#4F4C4C"/>
<path d="M433.612 116.291L430.315 114.387L427.009 116.297L430.315 118.205L433.612 116.291Z" fill="#F4F4F4"/>
<path d="M445.177 123.69L441.878 125.602V150.268L445.177 148.354V123.69Z" fill="#BDBCBC"/>
<path d="M438.575 123.69L441.878 125.602V150.268L438.575 148.354V123.69Z" fill="#D3D2D2"/>
<path d="M445.177 143.972L441.878 145.886V150.287L445.177 148.377V143.972Z" fill="#322F30"/>
<path d="M438.575 143.972L441.878 145.886V150.287L438.575 148.377V143.972Z" fill="#4F4C4C"/>
<path d="M445.177 123.69L441.878 121.784L438.575 123.698L441.878 125.602L445.177 123.69Z" fill="#F4F4F4"/>
<path d="M445.192 116.546L420.686 130.777V145.668L445.192 131.439V116.546Z" fill="#BDBCBC"/>
<path d="M442.911 117.812L431.221 124.598V131.697L442.911 124.911V117.812Z" fill="#322F30"/>
<path d="M426.948 130.357L420.637 134.018V141.121L426.948 137.453V130.357Z" fill="#322F30"/>
<path d="M405.789 122.161L420.686 130.777V145.668L405.789 137.052V122.161Z" fill="#D3D2D2"/>
<path d="M445.19 116.546L430.305 107.944L405.789 122.173L420.686 130.774L445.19 116.546" fill="#EDEDED"/>
<path d="M443.537 115.568L436.314 111.369L427.034 116.754L434.252 120.956L443.537 115.568Z" fill="#322F30"/>
<path d="M424.183 117.142L419.342 114.323L413.12 117.935L417.961 120.751L424.183 117.142Z" fill="#322F30"/>
<path d="M407.483 109.204L405.517 110.34L405.538 116.336L407.483 115.185V109.204" fill="#B8767F"/>
<path d="M403.706 109.428L405.517 110.34L405.538 116.336L403.706 115.268V109.428Z" fill="#E3939F"/>
<path d="M407.483 109.204L405.651 108.319L403.706 109.434L405.517 110.338L407.483 109.204" fill="#F8A1AF"/>
<path d="M420.55 118.532L413.849 122.399V134.603L420.55 130.76V118.532" fill="#BDBCBC"/>
<path d="M402.055 115.607L413.849 122.399V134.603L402.055 127.742V115.607Z" fill="#D3D2D2"/>
<path d="M420.55 118.528L408.759 111.727L402.055 115.607L413.849 122.395V122.391V122.395L420.55 118.528Z" fill="#EDEDED"/>
<path d="M413.853 128.891L406.863 132.907L406.851 138.631L413.853 134.578V128.891" fill="#322F30"/>
<path d="M393.853 125.649L406.863 132.923L406.851 138.635L393.853 131.254V125.649Z" fill="#3B3838"/>
<path d="M413.849 128.889L400.773 121.603L393.853 125.655L406.851 132.975L413.849 128.889Z" fill="#464344"/>
<path d="M413.867 122.407L402.067 115.59L397.7 123.486L409.522 130.33L413.867 122.407" fill="#D3D2D2"/>
<path d="M410.362 120.368L405.579 117.641L401.215 125.536L406.021 128.29L410.362 120.368Z" fill="#322F30"/>
<path d="M413.867 122.399L409.516 130.336V137.068L413.867 134.578V122.399Z" fill="#BDBCBC"/>
<path d="M419.927 114.568L418.601 115.329V119.394L419.927 118.627V114.568" fill="#BDBCBC"/>
<path d="M416.248 113.969L418.601 115.329V119.394L416.248 118.032V113.969Z" fill="#D3D2D2"/>
<path d="M416.57 114.942L418.134 115.848V119.112L416.57 118.209V114.942Z" fill="#F8A1AF"/>
<path d="M419.927 114.568L417.58 113.265L416.248 113.973L418.601 115.329L419.927 114.568Z" fill="#EDEDED"/>
<path d="M411.966 109.978L410.64 110.746V114.809L411.966 114.041V109.978Z" fill="#BDBCBC"/>
<path d="M408.285 109.383L410.64 110.746V114.809L408.285 113.446V109.383Z" fill="#D3D2D2"/>
<path d="M408.61 110.354L410.17 111.26V114.529L408.61 113.623V110.354Z" fill="#F8A1AF"/>
<path d="M411.967 109.978L409.617 108.681L408.285 109.387L410.64 110.746L411.967 109.978" fill="#EDEDED"/>
<path d="M417.274 124.464L415.541 125.46V127.189L417.274 126.189V124.464Z" fill="#322F30"/>
<path d="M415.073 125.184L415.542 125.46V127.189L415.073 126.909V125.184" fill="#403C3D"/>
<path d="M417.275 124.46L416.802 124.186L415.073 125.184L415.542 125.46L417.275 124.46Z" fill="#484546"/>
<path d="M421.629 125.546V123.274L417.412 120.849L417.416 123.093L421.629 125.546" fill="#B8767F"/>
<path d="M423.323 122.159L421.629 123.274L417.412 120.849L419.254 119.792L423.323 122.159Z" fill="#E3939F"/>
<path d="M421.629 125.544L423.311 124.396L423.315 122.155L421.629 123.274V125.544Z" fill="#F8A1AF"/>
<path d="M423.574 118.417L421.61 119.551L421.635 125.546L423.574 124.396V118.417" fill="#B8767F"/>
<path d="M419.799 118.637L421.61 119.551L421.635 125.546L419.799 124.482V118.637Z" fill="#E3939F"/>
<path d="M423.574 118.417L421.744 117.532L419.799 118.645L421.61 119.549L423.574 118.417" fill="#F8A1AF"/>
<path d="M345.716 158.705L347.775 159.736V162.895L345.716 161.864V158.705Z" fill="#322F30"/>
<path d="M349.713 158.61L347.775 159.736V162.895L349.713 161.767V158.61Z" fill="#3B3838"/>
<path d="M345.716 158.705L347.653 157.583L349.713 158.614L347.775 159.734L345.716 158.705Z" fill="#464344"/>
<path d="M346.324 143.608L347.756 144.328V159.283L346.324 158.563V143.608Z" fill="#A7A5A6"/>
<path d="M349.102 143.546L347.756 144.328V159.283L349.102 158.499V143.546Z" fill="#BFBEBE"/>
<path d="M346.324 143.608L347.676 142.83L349.102 143.548L347.756 144.328L346.324 143.608" fill="#DCDBDB"/>
<path d="M368.911 158.028L372.214 159.936V184.6L368.911 182.688V158.028Z" fill="#BDBCBC"/>
<path d="M375.518 158.028L372.214 159.936V184.6L375.518 182.688V158.028Z" fill="#D3D2D2"/>
<path d="M368.911 178.306L372.214 180.22V184.622L368.911 182.712V178.306Z" fill="#322F30"/>
<path d="M375.518 178.306L372.214 180.22V184.622L375.518 182.712V178.306Z" fill="#4F4C4C"/>
<path d="M368.915 158.028L372.214 156.118L375.518 158.032L372.214 159.936L368.915 158.028Z" fill="#F4F4F4"/>
<path d="M380.525 151.41L383.825 153.32V177.985L380.525 176.074V151.41Z" fill="#BDBCBC"/>
<path d="M387.128 151.41L383.825 153.32V177.985L387.128 176.074V151.41Z" fill="#D3D2D2"/>
<path d="M380.525 171.688L383.825 173.6V178.005L380.525 176.093V171.688Z" fill="#322F30"/>
<path d="M387.128 171.688L383.825 173.6V178.005L387.128 176.093V171.688Z" fill="#4F4C4C"/>
<path d="M380.525 151.41L383.825 149.5L387.128 151.412L383.825 153.32L380.525 151.41Z" fill="#F4F4F4"/>
<path d="M359.303 144.009L362.606 145.919V170.583L359.303 168.675V144.009Z" fill="#BDBCBC"/>
<path d="M365.904 144.009L362.606 145.919V170.583L365.904 168.675V144.009Z" fill="#D3D2D2"/>
<path d="M359.303 164.287L362.606 166.201V170.604L359.303 168.696V164.287Z" fill="#322F30"/>
<path d="M365.904 164.287L362.606 166.201V170.604L365.904 168.696V164.287Z" fill="#4F4C4C"/>
<path d="M359.303 144.009L362.606 142.099L365.904 144.013L362.606 145.919L359.303 144.009Z" fill="#F4F4F4"/>
<path d="M347.735 151.41L351.039 153.32V177.985L347.735 176.074V151.41Z" fill="#BDBCBC"/>
<path d="M354.343 151.41L351.039 153.32V177.985L354.343 176.074V151.41Z" fill="#D3D2D2"/>
<path d="M347.735 171.688L351.039 173.6V178.005L347.735 176.093V171.688Z" fill="#322F30"/>
<path d="M354.343 171.688L351.039 173.6V178.005L354.343 176.093V171.688Z" fill="#4F4C4C"/>
<path d="M347.738 151.41L351.039 149.5L354.343 151.412L351.039 153.32L347.738 151.41Z" fill="#F4F4F4"/>
<path d="M347.719 144.26L372.235 158.495V173.387L347.719 159.154V144.26Z" fill="#BDBCBC"/>
<path d="M350.002 145.53L361.686 152.318V159.411L350.002 152.629V145.53" fill="#322F30"/>
<path d="M365.965 158.075L372.278 161.739V168.834L365.965 165.172V158.075Z" fill="#322F30"/>
<path d="M387.127 149.877L372.235 158.495V173.387L387.127 164.769V149.877Z" fill="#D3D2D2"/>
<path d="M347.725 144.26L362.61 135.659L387.128 149.889L372.235 158.489L347.725 144.26Z" fill="#EDEDED"/>
<path d="M349.382 143.284L356.596 139.082L365.881 144.47L358.659 148.671L349.382 143.284Z" fill="#322F30"/>
<path d="M368.728 144.855L373.577 142.039L379.795 145.648L374.956 148.471L368.728 144.855" fill="#322F30"/>
<path d="M385.428 136.922L387.398 138.057L387.373 144.052L385.428 142.902V136.922" fill="#B8767F"/>
<path d="M389.213 137.141L387.398 138.057L387.373 144.052L389.213 142.986V137.141Z" fill="#E3939F"/>
<path d="M385.432 136.922L387.264 136.037L389.213 137.149L387.398 138.054L385.432 136.922" fill="#F8A1AF"/>
<path d="M372.362 146.244L379.07 150.11V162.323L372.362 158.474V146.244Z" fill="#BDBCBC"/>
<path d="M390.86 143.321L379.07 150.11V162.323L390.86 155.461V143.321Z" fill="#D3D2D2"/>
<path d="M372.371 146.244L384.155 139.44L390.86 143.32L379.069 150.108V150.106V150.108L372.371 146.244" fill="#EDEDED"/>
<path d="M379.058 156.606L386.054 160.623L386.06 166.345L379.058 162.295V156.606" fill="#322F30"/>
<path d="M399.062 153.362L386.054 160.636L386.067 166.347L399.062 158.972V153.362Z" fill="#3B3838"/>
<path d="M379.07 156.601L392.144 149.321L399.062 153.37L386.068 160.693L379.07 156.601Z" fill="#464344"/>
<path d="M379.05 150.12L390.846 143.303L395.213 151.201L383.389 158.044L379.05 150.12Z" fill="#D3D2D2"/>
<path d="M382.549 148.084L387.332 145.359L391.692 153.251L386.888 156.007L382.549 148.084" fill="#322F30"/>
<path d="M379.05 150.11L383.403 158.052V164.779L379.05 162.296V150.11" fill="#BDBCBC"/>
<path d="M372.984 142.28L374.315 143.044V147.109L372.984 146.343V142.28Z" fill="#BDBCBC"/>
<path d="M376.664 141.685L374.314 143.044V147.109L376.664 145.748V141.685Z" fill="#D3D2D2"/>
<path d="M376.343 142.657L374.781 143.56V146.829L376.343 145.925V142.657Z" fill="#F8A1AF"/>
<path d="M372.984 142.28L375.34 140.983L376.664 141.687L374.315 143.044L372.984 142.28" fill="#EDEDED"/>
<path d="M380.953 137.692L382.279 138.462V142.523L380.953 141.757V137.692Z" fill="#BDBCBC"/>
<path d="M384.626 137.101L382.279 138.462V142.523L384.626 141.165V137.101Z" fill="#D3D2D2"/>
<path d="M384.305 138.071L382.749 138.976V142.241L384.305 141.339V138.071Z" fill="#F8A1AF"/>
<path d="M380.953 137.692L383.298 136.396L384.627 137.1L382.279 138.462L380.953 137.692" fill="#EDEDED"/>
<path d="M375.646 152.182L377.37 153.176V154.903L375.646 153.903V152.182Z" fill="#322F30"/>
<path d="M377.839 152.899L377.37 153.176V154.903L377.839 154.625V152.899" fill="#403C3D"/>
<path d="M375.646 152.18L376.113 151.9L377.838 152.901L377.37 153.176L375.646 152.18" fill="#484546"/>
<path d="M371.29 153.259V150.988L375.502 148.562L375.495 150.814L371.29 153.259" fill="#B8767F"/>
<path d="M369.596 149.877L371.29 150.987L375.503 148.562L373.665 147.508L369.596 149.877Z" fill="#E3939F"/>
<path d="M371.29 153.257L369.608 152.118L369.596 149.871L371.29 150.988V153.257" fill="#F8A1AF"/>
<path d="M369.331 146.131L371.302 147.265L371.278 153.263L369.331 152.114V146.131" fill="#B8767F"/>
<path d="M373.116 146.356L371.302 147.265L371.278 153.263L373.116 152.197V146.356Z" fill="#E3939F"/>
<path d="M369.341 146.131L371.171 145.246L373.116 146.36L371.302 147.263L369.341 146.131" fill="#F8A1AF"/>
</svg>
