<svg width="477" height="283" viewBox="0 0 477 283" fill="none" xmlns="http://www.w3.org/2000/svg">
<path d="M356.668 119.483L347.545 124.761V133.884L356.668 128.602V119.483Z" fill="#2F4B0C"/>
<path d="M338.422 119.483L347.545 124.761V133.884L338.422 128.602V119.483Z" fill="#5F971C"/>
<path d="M356.662 119.479L347.545 114.21L338.422 119.491L347.545 124.757V124.755V124.757L356.662 119.479Z" fill="#6CAD21"/>
<path d="M353.301 114.163L347.831 117.332V122.806L353.301 119.639V114.163Z" fill="#2F4B0C"/>
<path d="M342.355 114.163L347.831 117.332V122.806L342.355 119.639V114.163Z" fill="#5F971C"/>
<path d="M353.297 114.163L347.831 111.002L342.355 114.167L347.831 117.328L353.297 114.163Z" fill="#80CC28"/>
<path d="M351.819 109.574L347.773 111.918V115.962L351.819 113.62V109.574Z" fill="#2F4B0C"/>
<path d="M343.723 109.574L347.773 111.918V115.962L343.723 113.62V109.574Z" fill="#5F971C"/>
<path d="M477 131.307L250.494 2.13733L0 146.726L225.959 276.376L477 131.307Z" fill="#BF935B"/>
<path d="M477 131.307L226.101 272.669V282.151L477 136.02V132.766V131.307Z" fill="#837430"/>
<path d="M0 145.032L226.101 272.669V282.151L0 152.026V145.032Z" fill="#B09C40"/>
<path d="M18.9633 156.105L0 145.165L61.8808 109.417V131.72L18.9633 156.105ZM69.284 127.462L61.8808 131.72V128.449V109.417L224.642 15.3987L223.672 38.6795L69.284 127.462ZM231.083 34.4195L223.672 38.6795L223.749 16.2786L250.17 0.752036L268.404 12.4218L259.652 6.83141L255.275 4.03623L268.404 12.4218L231.083 34.4195Z" fill="#9D794A"/>
<path d="M124.457 82.7102L115.336 87.9895V97.1105L124.457 91.8332V82.7102Z" fill="#2F4B0C"/>
<path d="M106.212 82.7102L115.336 87.9895V97.1105L106.212 91.8332V82.7102Z" fill="#5F971C"/>
<path d="M124.449 82.7083L115.336 77.4387L106.212 82.718L115.336 87.9836V87.9817V87.9836L124.449 82.7083" fill="#6CAD21"/>
<path d="M121.095 77.3919L115.619 80.5607V86.0325L121.095 82.8677V77.3919Z" fill="#2F4B0C"/>
<path d="M110.145 77.3919L115.619 80.5607V86.0325L110.145 82.8677V77.3919" fill="#5F971C"/>
<path d="M121.087 77.3919L115.619 74.229L110.145 77.3958L115.619 80.5548L121.087 77.3919" fill="#80CC28"/>
<path d="M119.61 72.8032L115.562 75.1471V79.1892L119.61 76.8472V72.8032Z" fill="#2F4B0C"/>
<path d="M111.513 72.8032L115.562 75.1471V79.1892L111.513 76.8472V72.8032Z" fill="#5F971C"/>
<path d="M119.608 72.8031L115.562 70.465L111.513 72.807L115.562 75.1451V75.1412V75.1451L119.608 72.8031Z" fill="#80CC28"/>
<path d="M97.5064 98.402L88.3882 103.679V112.802L97.5064 107.527V98.402Z" fill="#2F4B0C"/>
<path d="M79.2624 98.402L88.3881 103.679V112.802L79.2624 107.527V98.402Z" fill="#5F971C"/>
<path d="M97.5015 98.4L88.3881 93.1324L79.2624 98.4116L88.3881 103.677L97.5015 98.4Z" fill="#6CAD21"/>
<path d="M94.144 93.0857L88.6693 96.2505V101.726L94.144 98.5595V93.0857Z" fill="#2F4B0C"/>
<path d="M83.1938 93.0857L88.6691 96.2505V101.726L83.1938 98.5595V93.0857Z" fill="#5F971C"/>
<path d="M94.1355 93.0857L88.6691 89.9247L83.1938 93.0915L88.6691 96.2505L94.1355 93.0857Z" fill="#80CC28"/>
<path d="M92.6613 88.4951L88.6099 90.8351V94.885L92.6613 92.5391V88.4951Z" fill="#2F4B0C"/>
<path d="M84.5638 88.4951L88.6098 90.8351V94.885L84.5638 92.5391V88.4951Z" fill="#5F971C"/>
<path d="M92.6537 88.4951L88.6098 86.1589L84.5638 88.5009L88.6098 90.8351L92.6537 88.4951Z" fill="#80CC28"/>
<path d="M70.5561 114.096L61.4341 119.373V128.496L70.5561 123.217V114.096Z" fill="#2F4B0C"/>
<path d="M52.3061 114.096L61.4341 119.373V128.496L52.3061 123.217V114.096Z" fill="#5F971C"/>
<path d="M70.5501 114.096L61.4341 108.824L52.3061 114.104L61.4341 119.371V119.367V119.371L70.5501 114.096" fill="#6CAD21"/>
<path d="M67.1923 108.778L61.7191 111.946V117.418L67.1923 114.253V108.778Z" fill="#2F4B0C"/>
<path d="M56.243 108.778L61.7191 111.946V117.418L56.243 114.253V108.778Z" fill="#5F971C"/>
<path d="M67.1863 108.778L61.7191 105.613L56.243 108.784L61.7191 111.945V111.943V111.945L67.1863 108.778Z" fill="#80CC28"/>
<path d="M65.7107 104.187L61.6585 106.533V110.577L65.7107 108.237V104.187Z" fill="#2F4B0C"/>
<path d="M57.6122 104.187L61.6584 106.533V110.577L57.6122 108.237V104.187Z" fill="#5F971C"/>
<path d="M65.706 104.187L61.6584 101.855L57.6122 104.195L61.6584 106.531V106.529V106.531L65.706 104.187Z" fill="#80CC28"/>
<path d="M43.6046 129.79L34.4841 135.065V144.19L43.6046 138.911V129.79" fill="#2F4B0C"/>
<path d="M25.3583 129.79L34.484 135.065V144.19L25.3583 138.911V129.79" fill="#5F971C"/>
<path d="M43.5992 129.788L34.484 124.518L25.3583 129.797L34.484 135.063V135.061V135.063L43.5992 129.788" fill="#6CAD21"/>
<path d="M40.2399 124.471L34.7661 127.638V133.112L40.2399 129.945V124.471Z" fill="#2F4B0C"/>
<path d="M29.2905 124.471L34.7661 127.638V133.112L29.2905 129.945V124.471" fill="#5F971C"/>
<path d="M40.2369 124.471L34.7661 121.31L29.2905 124.475L34.7661 127.634L40.2369 124.471Z" fill="#80CC28"/>
<path d="M38.7606 119.883L34.7091 122.225V126.269L38.7606 123.925V119.883Z" fill="#2F4B0C"/>
<path d="M30.6629 119.883L34.7091 122.225V126.269L30.6629 123.925V119.883Z" fill="#5F971C"/>
<path d="M38.7545 119.883L34.7091 117.545L30.6629 119.887L34.7091 122.221L38.7545 119.883Z" fill="#80CC28"/>
<path d="M93.5247 198.012L74.1616 186.87L325.294 44.5136L334.046 49.6191L342.798 54.7246L93.5247 198.012Z" fill="#9D794A"/>
<path d="M56.3274 176.954L36.9644 165.812L288.097 23.362L296.849 28.4675L305.601 33.573L56.3274 176.954Z" fill="#9D794A"/>
<path d="M130.374 219.164L111.004 208.023L363.22 66.3942L367.232 68.5822L371.243 70.7703L379.995 75.8758L130.374 219.164Z" fill="#9D794A"/>
<path d="M166.691 241.043L147.33 229.905L398.229 86.0867L405.523 90.4629L417.193 97.0271L166.691 241.043Z" fill="#9D794A"/>
<path d="M204.826 260.754L185.46 249.611L437.817 108.581L453.863 118.063L204.826 260.754Z" fill="#9D794A"/>
<path d="M447.203 122.989L445.144 124.02V127.179L447.203 126.146V122.989Z" fill="#322F30"/>
<path d="M443.199 122.892L445.144 124.02V127.179L443.199 126.049V122.892Z" fill="#3B3838"/>
<path d="M447.199 122.99L445.26 121.865L443.199 122.9L445.144 124.016L447.199 122.99" fill="#464344"/>
<path d="M446.587 107.893L445.159 108.611V123.563L446.587 122.85V107.893" fill="#A7A5A6"/>
<path d="M443.817 107.827L445.159 108.611V123.563L443.817 122.78V107.827Z" fill="#BFBEBE"/>
<path d="M446.587 107.893L445.243 107.113L443.817 107.833L445.159 108.609L446.587 107.893" fill="#DCDBDB"/>
<path d="M424 122.309L420.699 124.219V148.885L424 146.973V122.309" fill="#BDBCBC"/>
<path d="M417.396 122.309L420.699 124.219V148.885L417.396 146.973V122.309" fill="#D3D2D2"/>
<path d="M424 142.591L420.699 144.501V148.906L424 146.996V142.591" fill="#322F30"/>
<path d="M417.396 142.591L420.699 144.501V148.906L417.396 146.996V142.591" fill="#4F4C4C"/>
<path d="M424 122.309L420.699 120.403L417.396 122.311L420.699 124.219L424 122.309Z" fill="#F4F4F4"/>
<path d="M412.393 115.69L409.09 117.602V142.268L412.393 140.354V115.69Z" fill="#BDBCBC"/>
<path d="M405.786 115.69L409.09 117.602V142.268L405.786 140.354V115.69Z" fill="#D3D2D2"/>
<path d="M412.393 135.972L409.09 137.886V142.287L412.393 140.377V135.972Z" fill="#322F30"/>
<path d="M405.786 135.972L409.09 137.886V142.287L405.786 140.377V135.972Z" fill="#4F4C4C"/>
<path d="M412.393 115.69L409.09 113.784L405.786 115.698L409.09 117.602L412.393 115.69Z" fill="#F4F4F4"/>
<path d="M433.614 108.292L430.315 110.205V134.867L433.614 132.959V108.292Z" fill="#BDBCBC"/>
<path d="M427.009 108.292L430.315 110.205V134.867L427.009 132.959V108.292Z" fill="#D3D2D2"/>
<path d="M433.614 128.575L430.315 130.485V134.891L433.614 132.981V128.575Z" fill="#322F30"/>
<path d="M427.009 128.575L430.315 130.485V134.891L427.009 132.981V128.575Z" fill="#4F4C4C"/>
<path d="M433.612 108.291L430.315 106.387L427.009 108.297L430.315 110.205L433.612 108.291Z" fill="#F4F4F4"/>
<path d="M445.177 115.69L441.878 117.602V142.268L445.177 140.354V115.69Z" fill="#BDBCBC"/>
<path d="M438.575 115.69L441.878 117.602V142.268L438.575 140.354V115.69Z" fill="#D3D2D2"/>
<path d="M445.177 135.972L441.878 137.886V142.287L445.177 140.377V135.972Z" fill="#322F30"/>
<path d="M438.575 135.972L441.878 137.886V142.287L438.575 140.377V135.972Z" fill="#4F4C4C"/>
<path d="M445.177 115.69L441.878 113.784L438.575 115.698L441.878 117.602L445.177 115.69Z" fill="#F4F4F4"/>
<path d="M445.192 108.546L420.686 122.777V137.668L445.192 123.439V108.546Z" fill="#BDBCBC"/>
<path d="M442.911 109.812L431.221 116.598V123.697L442.911 116.911V109.812Z" fill="#322F30"/>
<path d="M426.948 122.357L420.637 126.018V133.121L426.948 129.453V122.357Z" fill="#322F30"/>
<path d="M405.789 114.161L420.686 122.777V137.668L405.789 129.052V114.161Z" fill="#D3D2D2"/>
<path d="M445.19 108.546L430.305 99.9438L405.789 114.173L420.686 122.774L445.19 108.546" fill="#EDEDED"/>
<path d="M443.537 107.568L436.314 103.369L427.034 108.754L434.252 112.956L443.537 107.568Z" fill="#322F30"/>
<path d="M424.183 109.142L419.342 106.323L413.12 109.935L417.961 112.751L424.183 109.142Z" fill="#322F30"/>
<path d="M407.483 101.204L405.517 102.34L405.538 108.336L407.483 107.185V101.204" fill="#B8767F"/>
<path d="M403.706 101.428L405.517 102.34L405.538 108.336L403.706 107.268V101.428Z" fill="#E3939F"/>
<path d="M407.483 101.204L405.651 100.319L403.706 101.434L405.517 102.338L407.483 101.204" fill="#F8A1AF"/>
<path d="M420.55 110.532L413.849 114.399V126.603L420.55 122.76V110.532" fill="#BDBCBC"/>
<path d="M402.055 107.607L413.849 114.399V126.603L402.055 119.742V107.607Z" fill="#D3D2D2"/>
<path d="M420.55 110.528L408.759 103.727L402.055 107.607L413.849 114.395V114.391V114.395L420.55 110.528Z" fill="#EDEDED"/>
<path d="M413.853 120.891L406.863 124.907L406.851 130.631L413.853 126.578V120.891" fill="#322F30"/>
<path d="M393.853 117.649L406.863 124.923L406.851 130.635L393.853 123.254V117.649Z" fill="#3B3838"/>
<path d="M413.849 120.889L400.773 113.603L393.853 117.655L406.851 124.975L413.849 120.889Z" fill="#464344"/>
<path d="M413.867 114.407L402.067 107.59L397.7 115.486L409.522 122.33L413.867 114.407" fill="#D3D2D2"/>
<path d="M410.362 112.368L405.579 109.641L401.215 117.536L406.021 120.29L410.362 112.368Z" fill="#322F30"/>
<path d="M413.867 114.399L409.516 122.336V129.068L413.867 126.578V114.399Z" fill="#BDBCBC"/>
<path d="M419.927 106.568L418.601 107.329V111.394L419.927 110.627V106.568" fill="#BDBCBC"/>
<path d="M416.248 105.969L418.601 107.329V111.394L416.248 110.032V105.969Z" fill="#D3D2D2"/>
<path d="M416.57 106.942L418.134 107.848V111.112L416.57 110.209V106.942Z" fill="#F8A1AF"/>
<path d="M419.927 106.568L417.58 105.265L416.248 105.973L418.601 107.329L419.927 106.568Z" fill="#EDEDED"/>
<path d="M411.966 101.978L410.64 102.746V106.809L411.966 106.041V101.978Z" fill="#BDBCBC"/>
<path d="M408.285 101.383L410.64 102.746V106.809L408.285 105.446V101.383Z" fill="#D3D2D2"/>
<path d="M408.61 102.354L410.17 103.26V106.529L408.61 105.623V102.354Z" fill="#F8A1AF"/>
<path d="M411.967 101.978L409.617 100.681L408.285 101.387L410.64 102.746L411.967 101.978" fill="#EDEDED"/>
<path d="M417.274 116.464L415.541 117.46V119.189L417.274 118.189V116.464Z" fill="#322F30"/>
<path d="M415.073 117.184L415.542 117.46V119.189L415.073 118.909V117.184" fill="#403C3D"/>
<path d="M417.275 116.46L416.802 116.186L415.073 117.184L415.542 117.46L417.275 116.46Z" fill="#484546"/>
<path d="M421.629 117.546V115.274L417.412 112.849L417.416 115.093L421.629 117.546" fill="#B8767F"/>
<path d="M423.323 114.159L421.629 115.274L417.412 112.849L419.254 111.792L423.323 114.159Z" fill="#E3939F"/>
<path d="M421.629 117.544L423.311 116.396L423.315 114.155L421.629 115.274V117.544Z" fill="#F8A1AF"/>
<path d="M423.574 110.417L421.61 111.551L421.635 117.546L423.574 116.396V110.417" fill="#B8767F"/>
<path d="M419.799 110.637L421.61 111.551L421.635 117.546L419.799 116.482V110.637Z" fill="#E3939F"/>
<path d="M423.574 110.417L421.744 109.532L419.799 110.645L421.61 111.549L423.574 110.417" fill="#F8A1AF"/>
<path d="M345.716 150.705L347.775 151.736V154.895L345.716 153.864V150.705Z" fill="#322F30"/>
<path d="M349.713 150.61L347.775 151.736V154.895L349.713 153.767V150.61Z" fill="#3B3838"/>
<path d="M345.716 150.705L347.653 149.583L349.713 150.614L347.775 151.734L345.716 150.705Z" fill="#464344"/>
<path d="M346.324 135.608L347.756 136.328V151.283L346.324 150.563V135.608Z" fill="#A7A5A6"/>
<path d="M349.102 135.546L347.756 136.328V151.283L349.102 150.499V135.546Z" fill="#BFBEBE"/>
<path d="M346.324 135.608L347.676 134.83L349.102 135.548L347.756 136.328L346.324 135.608" fill="#DCDBDB"/>
<path d="M368.911 150.028L372.214 151.936V176.6L368.911 174.688V150.028Z" fill="#BDBCBC"/>
<path d="M375.518 150.028L372.214 151.936V176.6L375.518 174.688V150.028Z" fill="#D3D2D2"/>
<path d="M368.911 170.306L372.214 172.22V176.622L368.911 174.712V170.306Z" fill="#322F30"/>
<path d="M375.518 170.306L372.214 172.22V176.622L375.518 174.712V170.306Z" fill="#4F4C4C"/>
<path d="M368.915 150.028L372.214 148.118L375.518 150.032L372.214 151.936L368.915 150.028Z" fill="#F4F4F4"/>
<path d="M380.525 143.41L383.825 145.32V169.985L380.525 168.074V143.41Z" fill="#BDBCBC"/>
<path d="M387.128 143.41L383.825 145.32V169.985L387.128 168.074V143.41Z" fill="#D3D2D2"/>
<path d="M380.525 163.688L383.825 165.6V170.005L380.525 168.093V163.688Z" fill="#322F30"/>
<path d="M387.128 163.688L383.825 165.6V170.005L387.128 168.093V163.688Z" fill="#4F4C4C"/>
<path d="M380.525 143.41L383.825 141.5L387.128 143.412L383.825 145.32L380.525 143.41Z" fill="#F4F4F4"/>
<path d="M359.303 136.009L362.606 137.919V162.583L359.303 160.675V136.009Z" fill="#BDBCBC"/>
<path d="M365.904 136.009L362.606 137.919V162.583L365.904 160.675V136.009Z" fill="#D3D2D2"/>
<path d="M359.303 156.287L362.606 158.201V162.604L359.303 160.696V156.287Z" fill="#322F30"/>
<path d="M365.904 156.287L362.606 158.201V162.604L365.904 160.696V156.287Z" fill="#4F4C4C"/>
<path d="M359.303 136.009L362.606 134.099L365.904 136.013L362.606 137.919L359.303 136.009Z" fill="#F4F4F4"/>
<path d="M347.735 143.41L351.039 145.32V169.985L347.735 168.074V143.41Z" fill="#BDBCBC"/>
<path d="M354.343 143.41L351.039 145.32V169.985L354.343 168.074V143.41Z" fill="#D3D2D2"/>
<path d="M347.735 163.688L351.039 165.6V170.005L347.735 168.093V163.688Z" fill="#322F30"/>
<path d="M354.343 163.688L351.039 165.6V170.005L354.343 168.093V163.688Z" fill="#4F4C4C"/>
<path d="M347.738 143.41L351.039 141.5L354.343 143.412L351.039 145.32L347.738 143.41Z" fill="#F4F4F4"/>
<path d="M347.719 136.26L372.235 150.495V165.387L347.719 151.154V136.26Z" fill="#BDBCBC"/>
<path d="M350.002 137.53L361.686 144.318V151.411L350.002 144.629V137.53" fill="#322F30"/>
<path d="M365.965 150.075L372.278 153.739V160.834L365.965 157.172V150.075Z" fill="#322F30"/>
<path d="M387.127 141.877L372.235 150.495V165.387L387.127 156.769V141.877Z" fill="#D3D2D2"/>
<path d="M347.725 136.26L362.61 127.659L387.128 141.889L372.235 150.489L347.725 136.26Z" fill="#EDEDED"/>
<path d="M349.382 135.284L356.596 131.082L365.881 136.47L358.659 140.671L349.382 135.284Z" fill="#322F30"/>
<path d="M368.728 136.855L373.577 134.039L379.795 137.648L374.956 140.471L368.728 136.855" fill="#322F30"/>
<path d="M385.428 128.922L387.398 130.057L387.373 136.052L385.428 134.902V128.922" fill="#B8767F"/>
<path d="M389.213 129.141L387.398 130.057L387.373 136.052L389.213 134.986V129.141Z" fill="#E3939F"/>
<path d="M385.432 128.922L387.264 128.037L389.213 129.149L387.398 130.054L385.432 128.922" fill="#F8A1AF"/>
<path d="M372.362 138.244L379.07 142.11V154.323L372.362 150.474V138.244Z" fill="#BDBCBC"/>
<path d="M390.86 135.321L379.07 142.11V154.323L390.86 147.461V135.321Z" fill="#D3D2D2"/>
<path d="M372.371 138.244L384.155 131.44L390.86 135.32L379.069 142.108V142.106V142.108L372.371 138.244" fill="#EDEDED"/>
<path d="M379.058 148.606L386.054 152.623L386.06 158.345L379.058 154.295V148.606" fill="#322F30"/>
<path d="M399.062 145.362L386.054 152.636L386.067 158.347L399.062 150.972V145.362Z" fill="#3B3838"/>
<path d="M379.07 148.601L392.144 141.321L399.062 145.37L386.068 152.693L379.07 148.601Z" fill="#464344"/>
<path d="M379.05 142.12L390.846 135.303L395.213 143.201L383.389 150.044L379.05 142.12Z" fill="#D3D2D2"/>
<path d="M382.549 140.084L387.332 137.359L391.692 145.251L386.888 148.007L382.549 140.084" fill="#322F30"/>
<path d="M379.05 142.11L383.403 150.052V156.779L379.05 154.296V142.11" fill="#BDBCBC"/>
<path d="M372.984 134.28L374.315 135.044V139.109L372.984 138.343V134.28Z" fill="#BDBCBC"/>
<path d="M376.664 133.685L374.314 135.044V139.109L376.664 137.748V133.685Z" fill="#D3D2D2"/>
<path d="M376.343 134.657L374.781 135.56V138.829L376.343 137.925V134.657Z" fill="#F8A1AF"/>
<path d="M372.984 134.28L375.34 132.983L376.664 133.687L374.315 135.044L372.984 134.28" fill="#EDEDED"/>
<path d="M380.953 129.692L382.279 130.462V134.523L380.953 133.757V129.692Z" fill="#BDBCBC"/>
<path d="M384.626 129.101L382.279 130.462V134.523L384.626 133.165V129.101Z" fill="#D3D2D2"/>
<path d="M384.305 130.071L382.749 130.976V134.241L384.305 133.339V130.071Z" fill="#F8A1AF"/>
<path d="M380.953 129.692L383.298 128.396L384.627 129.1L382.279 130.462L380.953 129.692" fill="#EDEDED"/>
<path d="M375.646 144.182L377.37 145.176V146.903L375.646 145.903V144.182Z" fill="#322F30"/>
<path d="M377.839 144.899L377.37 145.176V146.903L377.839 146.625V144.899" fill="#403C3D"/>
<path d="M375.646 144.18L376.113 143.9L377.838 144.901L377.37 145.176L375.646 144.18" fill="#484546"/>
<path d="M371.29 145.259V142.988L375.502 140.562L375.495 142.814L371.29 145.259" fill="#B8767F"/>
<path d="M369.596 141.877L371.29 142.987L375.503 140.562L373.665 139.508L369.596 141.877Z" fill="#E3939F"/>
<path d="M371.29 145.257L369.608 144.118L369.596 141.871L371.29 142.988V145.257" fill="#F8A1AF"/>
<path d="M369.331 138.131L371.302 139.265L371.278 145.263L369.331 144.114V138.131" fill="#B8767F"/>
<path d="M373.116 138.356L371.302 139.265L371.278 145.263L373.116 144.197V138.356Z" fill="#E3939F"/>
<path d="M369.341 138.131L371.171 137.246L373.116 138.36L371.302 139.263L369.341 138.131" fill="#F8A1AF"/>
</svg>
